<svg xmlns="http://www.w3.org/2000/svg" viewBox="0 0 205.52 273.91"><defs><style>.cls-1{fill:#ffcd2d;opacity:0.65;}.cls-1,.cls-2,.cls-3,.cls-4,.cls-5{stroke:#231f20;}.cls-1,.cls-2,.cls-3,.cls-4,.cls-5,.cls-6{stroke-miterlimit:10;}.cls-2{fill:#c2b59b;}.cls-3{fill:#603913;}.cls-4{fill:#fff;}.cls-5{fill:#c49a6c;}.cls-6{fill:none;stroke:#603913;}.cls-7{fill:#bcbec0;}.cls-8{fill:#9b8579;}</style></defs><g id="Layer_2" data-name="Layer 2"><g id="Layer_1-2" data-name="Layer 1"><rect class="cls-1" x="4.76" y="0.68" width="200" height="272.54" rx="11.69" transform="translate(-0.28 0.22) rotate(-0.12)"/><rect class="cls-2" x="0.76" y="0.69" width="200" height="272.54" rx="11.69" transform="translate(-0.28 0.21) rotate(-0.12)"/><rect class="cls-3" x="-17.32" y="47.39" width="244.16" height="179.13" rx="11.59" transform="translate(241.49 31.91) rotate(89.88)"/><rect class="cls-4" x="-21.33" y="43.26" width="244.16" height="179.13" rx="11.59" transform="translate(233.36 31.79) rotate(89.88)"/><circle class="cls-3" cx="51.08" cy="22.92" r="3.52"/><circle class="cls-3" cx="153.34" cy="22.71" r="3.52"/><rect class="cls-5" x="52.14" y="21.18" width="101.2" height="2.86" rx="1.43" transform="translate(-0.05 0.21) rotate(-0.12)"/><rect class="cls-6" x="23.26" y="49.35" width="29.67" height="29.67" rx="7.31" transform="translate(-0.13 0.08) rotate(-0.12)"/><rect class="cls-7" x="62.48" y="59.53" width="120.15" height="10.91" transform="translate(-0.13 0.25) rotate(-0.12)"/><rect class="cls-7" x="62.59" y="115.7" width="120.15" height="10.91" transform="translate(-0.25 0.26) rotate(-0.12)"/><rect class="cls-7" x="64.52" y="167.67" width="120.15" height="10.91" transform="translate(-0.36 0.26) rotate(-0.12)"/><rect class="cls-7" x="64.66" y="220.61" width="120.15" height="10.91" transform="translate(-0.47 0.26) rotate(-0.12)"/><path class="cls-8" d="M47.07,57.1c-4.19,4.41-8.75,6.36-11.33,4.58s-5.92-1.94-7-.48,2.08,5,5.8,8,7.58,4.35,8.85,2.9,5-6.05,9.29-10.27a70.82,70.82,0,0,1,6.48-5.7c5.28-4.09,9.17-7.72,7.36-9.36C64.92,45,58.49,46.5,53.4,51,51.09,53,49,55.08,47.07,57.1Z"/><rect class="cls-6" x="22.14" y="106.49" width="29.67" height="29.67" rx="7.31" transform="translate(-0.25 0.08) rotate(-0.12)"/><path class="cls-8" d="M46,114.25c-4.2,4.41-8.76,6.36-11.34,4.58s-5.92-2-7-.48,2.07,5,5.79,8,7.58,4.36,8.85,2.91,5-6.05,9.29-10.27a72.18,72.18,0,0,1,6.48-5.7c5.28-4.09,9.17-7.72,7.36-9.36-1.62-1.76-8-.3-13.13,4.23C50,110.18,47.87,112.23,46,114.25Z"/><rect class="cls-6" x="24.32" y="159.38" width="29.67" height="29.67" rx="7.31" transform="translate(-0.36 0.08) rotate(-0.12)"/><path class="cls-8" d="M48.13,166.13c-4.2,4.41-8.76,6.36-11.34,4.58s-5.92-1.94-7-.48,2.08,5,5.79,8,7.58,4.35,8.86,2.9,5-6.05,9.29-10.27a72,72,0,0,1,6.47-5.7c5.29-4.09,9.17-7.72,7.36-9.36-1.61-1.75-8.05-.29-13.13,4.23C52.15,162.06,50.05,164.11,48.13,166.13Z"/><rect class="cls-6" x="23.19" y="216.52" width="29.67" height="29.67" rx="7.31" transform="translate(-0.48 0.08) rotate(-0.12)"/><path class="cls-8" d="M46,222.18c-4.19,4.41-8.75,6.36-11.34,4.59s-5.91-2-7-.49,2.08,5,5.8,8,7.58,4.36,8.85,2.91,5-6.05,9.29-10.28a70.76,70.76,0,0,1,6.48-5.69c5.28-4.09,9.17-7.73,7.36-9.37-1.62-1.75-8-.29-13.14,4.24C50,218.11,47.92,220.16,46,222.18Z"/></g></g></svg>