<svg xmlns="http://www.w3.org/2000/svg" viewBox="0 0 246.78 301.91"><defs><style>.cls-1{fill:#ffcd2d;opacity:0.65;}.cls-1,.cls-2,.cls-3,.cls-4,.cls-5{stroke:#231f20;}.cls-1,.cls-2,.cls-3,.cls-4,.cls-5,.cls-6{stroke-miterlimit:10;}.cls-2{fill:#c2b59b;}.cls-3{fill:#603913;}.cls-4{fill:#fff;}.cls-5{fill:#c49a6c;}.cls-6{fill:none;stroke:#603913;}.cls-7{fill:#bcbec0;}.cls-8{fill:#9b8579;}</style></defs><g id="Layer_2" data-name="Layer 2"><g id="Layer_1-2" data-name="Layer 1"><rect class="cls-1" x="25.36" y="15.04" width="200" height="272.54" rx="11.69" transform="translate(29.19 -20.04) rotate(10.34)"/><rect class="cls-2" x="21.42" y="14.33" width="200" height="272.54" rx="11.69" transform="translate(28.99 -19.34) rotate(10.34)"/><rect class="cls-3" x="3.28" y="61.75" width="244.16" height="179.13" rx="11.59" transform="translate(296.71 55.14) rotate(100.34)"/><rect class="cls-4" x="0.06" y="57.09" width="244.16" height="179.13" rx="11.59" transform="translate(288.34 52.82) rotate(100.34)"/><circle class="cls-3" cx="93.26" cy="29.43" r="3.52"/><circle class="cls-3" cx="193.86" cy="47.78" r="3.52"/><rect class="cls-5" x="93.53" y="37.07" width="101.2" height="2.86" rx="1.43" transform="translate(9.25 -25.24) rotate(10.34)"/><rect class="cls-6" x="60.14" y="45.88" width="14.61" height="14.61" rx="7.31" transform="translate(10.64 -11.24) rotate(10.34)"/><rect class="cls-6" x="40.51" y="153.49" width="14.61" height="14.61" rx="7.31" transform="translate(29.63 -5.97) rotate(10.34)"/><rect class="cls-7" x="77.79" y="70.43" width="133.32" height="4.19" transform="translate(15.36 -24.74) rotate(10.34)"/><rect class="cls-7" x="56.17" y="79.12" width="153.2" height="4.19" transform="translate(16.73 -22.5) rotate(10.34)"/><rect class="cls-7" x="54.26" y="89.6" width="153.2" height="4.19" transform="translate(18.58 -21.99) rotate(10.34)"/><rect class="cls-7" x="52.35" y="100.07" width="153.2" height="4.19" transform="translate(20.43 -21.48) rotate(10.34)"/><rect class="cls-7" x="50.44" y="110.55" width="153.2" height="4.19" transform="translate(22.27 -20.97) rotate(10.34)"/><rect class="cls-7" x="48.52" y="121.02" width="153.2" height="4.19" transform="translate(24.12 -20.45) rotate(10.34)"/><rect class="cls-7" x="46.61" y="131.5" width="153.2" height="4.19" transform="translate(25.97 -19.94) rotate(10.34)"/><rect class="cls-7" x="44.51" y="143.03" width="153.2" height="4.19" transform="translate(28.01 -19.38) rotate(10.34)"/><rect class="cls-7" x="58.3" y="177.29" width="133.32" height="4.19" transform="translate(34.22 -19.51) rotate(10.34)"/><rect class="cls-7" x="36.68" y="185.98" width="153.2" height="4.19" transform="translate(35.59 -17.27) rotate(10.34)"/><rect class="cls-7" x="34.77" y="196.46" width="153.2" height="4.19" transform="translate(37.44 -16.76) rotate(10.34)"/><rect class="cls-7" x="32.85" y="206.93" width="153.2" height="4.19" transform="translate(39.28 -16.25) rotate(10.34)"/><rect class="cls-7" x="30.94" y="217.41" width="153.2" height="4.19" transform="translate(41.13 -15.73) rotate(10.34)"/><rect class="cls-7" x="29.03" y="227.89" width="153.2" height="4.19" transform="translate(42.98 -15.22) rotate(10.34)"/><rect class="cls-7" x="27.12" y="238.36" width="153.2" height="4.19" transform="translate(44.83 -14.71) rotate(10.34)"/><rect class="cls-7" x="25.02" y="249.89" width="153.2" height="4.19" transform="translate(46.86 -14.14) rotate(10.34)"/><rect class="cls-7" x="42.6" y="153.5" width="153.2" height="4.19" transform="translate(29.86 -18.86) rotate(10.34)"/><path class="cls-8" d="M74.09,49.2c-3.56,2.57-6.53,3.67-7.71,2.61s-2.82-1.37-3.52-.73.66,2.45,2.33,4.24,3.36,2.78,4.12,2.18,3.51-3,7-5.39,6.9-4.49,6.22-5.31C82,45.84,77.72,46.51,74.09,49.2Z"/><path class="cls-8" d="M54.6,156.07c-3.57,2.56-6.54,3.66-7.71,2.6s-2.82-1.37-3.52-.73.66,2.46,2.33,4.24,3.36,2.78,4.12,2.18,3.51-3,7-5.38,6.9-4.5,6.22-5.31C62.49,152.7,58.23,153.37,54.6,156.07Z"/></g></g></svg>