<?xml version="1.0" encoding="utf-8"?>
<!-- Generator: Adobe Illustrator 25.2.3, SVG Export Plug-In . SVG Version: 6.00 Build 0)  -->
<svg version="1.1" id="Layer_1" xmlns="http://www.w3.org/2000/svg" xmlns:xlink="http://www.w3.org/1999/xlink" x="0px" y="0px"
	 viewBox="0 0 491.4 165.2" style="enable-background:new 0 0 491.4 165.2;" xml:space="preserve">
<style type="text/css">
	.st0{fill:#A97C50;stroke:#C2B59B;stroke-miterlimit:10;}
	.st1{fill:#00A651;}
	.st2{fill:#00A651;stroke:#006838;stroke-miterlimit:10;}
	.st3{fill:#FEBD40;}
	.st4{fill:#36763E;}
	.st5{fill:#F7941D;}
	.st6{fill:#FFFFFF;}
	.st7{fill:#3EB549;}
	.st8{fill:#C89632;}
	.st9{font-family:'HiraKakuStd-W8-83pv-RKSJ-H';}
	.st10{font-size:24.1629px;}
</style>
<path class="st0" d="M36.3,29.7c-1.1-1.1-2.4-2.1-3.7-3.1l5.8-6.2c1.4,1.6,2.8,3.1,4.4,4.5l2.8,2.6c1.8,1.7,3.1,2.8,4.8,4.1
	c-1.7,1.4-3.2,2.9-4.7,4.5l-3.7,3.9c-1.7,1.7-3.2,3.5-4.6,5.5c-2.3-0.3-4.5-1-6.5-1.9c-3.1-1.4-6-3.4-8.6-5.7
	c-4.5-4.2-6.8-8.6-6.9-13.5c-0.2-5.2,2.2-10.7,6.7-15.5C30.8-0.3,41.8-1,50.7,7.2c4.4,4.1,6.5,8.6,6.2,13.5c-0.1,2-0.6,4-1.5,5.8
	l-8.7-5c0.7-1.2,1-2.6,0.8-4c-0.3-1.7-1.2-3.3-2.5-4.4c-4.5-4.2-10-3.2-15.5,2.7c-3,3.3-4.7,6.5-4.7,9.3c0,2.3,1.1,4.5,3.3,6.6
	c1.8,1.7,3.9,2.9,6.3,3.5l3.7-4L36.3,29.7z"/>
<path class="st1" d="M241.4,163.5c-0.7-3.7-2.1-8.5-5.7-18.2c-3.7-10.1-5.1-12.8-8.1-15.4c-2.5-2.2-5.8-3.3-9.1-3.2h-11.9v19.1
	c-0.1,5.9,0.2,11.8,0.9,17.6h-25.1c0.8-5.8,1.1-11.7,0.9-17.5V83.2c0.1-5.7-0.2-11.5-0.9-17.1c5.1,0.2,9.4,0.3,17.4,0.3h30.3
	c18.9,0,29.9,9.8,29.9,26.6c0,8.3-2.3,14.8-6.9,19.1c-2.9,2.7-5.4,4-11.1,5.8c5.9,1.9,8.6,4.6,12.4,12.8c1.8,3.7,3.4,7.7,8.6,20.3
	c1.3,3.3,2.7,6.2,5.6,12.4H241.4z M224.9,106.8c6.9,0,11.1-4.2,11.1-10.8S232.2,86,225,86h-18.3v20.8L224.9,106.8z"/>
<path class="st1" d="M345,164c-0.7-4.3-1.6-8.5-2.8-12.6l-3.2-9.9h-33.4l-3.2,9.9c-1.4,4.1-2.4,8.3-2.9,12.6h-27.4
	c1.8-3.5,2.8-6.3,5.6-14.3l25.3-70.5c1.6-4.1,2.9-8.3,3.7-12.6h30.6c1,4.3,2.4,8.5,4,12.6l25.4,70.5c2.2,6.2,4.1,11,5.6,14.3
	L345,164z M322.2,86.6l-10.9,35.1h22L322.2,86.6z"/>
<path class="st2" d="M403.9,66.8c-0.7,4.8-0.9,8.7-0.9,17.2v62.5c-0.1,5.8,0.2,11.5,0.9,17.2h-25.6c0.8-5.7,1.1-11.5,0.9-17.2V84
	c0.1-5.8-0.2-11.5-0.9-17.2L403.9,66.8z"/>
<path class="st3" d="M473.7,158c-1.8,0-2.5,0-3.5,0.1c0.2-1.1,0.2-2.3,0.2-3.5v-13c0-1.2,0-2.3-0.2-3.5c1,0,1.6,0.1,3.5,0.1h7.6
	c1.2,0,2.4,0,3.5-0.2v4.4c-1.2-0.1-2.4-0.2-3.5-0.2h-6.2v3.5h5.1c1.2,0,2.4,0,3.6-0.2v2.2c5-9.9,7.6-23.5,7.6-40
	c0-17.8-3-31.8-8.8-41.4c-5.4-8.7-13.3-13.2-23.1-13.2h-16.7c-6.6,0-8.6-0.1-11.8-0.4c0.6,6.5,0.8,13.1,0.7,19.6v72.8
	c0,9.2-0.2,13.6-0.6,19.5c3.4-0.3,5.6-0.4,11.8-0.4h16.9c6.2,0.1,12.3-2.2,16.9-6.4L473.7,158z M458.2,141h-10.7V76.6h10.5
	c5.8,0,9.6,2.1,12.4,6.8c3.1,5.2,4.6,13.5,4.6,24.8c0,11.1-1.8,20-5,25.6C467,138.7,463.4,141,458.2,141L458.2,141z"/>
<path class="st3" d="M482.7,149.9c-0.7,0-1.4-0.1-2.5-0.1h-5.1v4h5.1c0.7-0.9,1.3-1.8,1.9-2.8C482.3,150.6,482.5,150.3,482.7,149.9z
	"/>
<path class="st4" d="M38.9,163.2h-3c-2.6,0-4.7-2.1-4.8-4.8c0,0,4.9-100.9,7.5-100.9l5,100.8C43.6,161.1,41.5,163.2,38.9,163.2z"/>
<path class="st5" d="M11.9,53.7c1.9-4,6.1-6.8,10.8-6.8H52c6.6,0,12,5.4,12,12v26.3c0,6.6-5.4,12-12,12H22.8c-6.6,0-12-5.4-12-12
	V58.9C10.8,57,11.2,55.3,11.9,53.7"/>
<path class="st6" d="M21.1,57.6h0.8c0.8,0,1.5,0.6,1.5,1.5v30.3c0,0.8-0.6,1.4-1.5,1.4h-0.8c-0.8,0-1.5-0.6-1.5-1.4V59.1
	C19.6,58.3,20.3,57.6,21.1,57.6z"/>
<path class="st6" d="M31.4,57.6h0.8c0.8,0,1.5,0.6,1.5,1.5v30.3c0,0.8-0.6,1.4-1.5,1.4h-0.8c-0.8,0-1.5-0.6-1.5-1.4V59.1
	C30,58.3,30.6,57.6,31.4,57.6z"/>
<path class="st6" d="M41.2,57.6H42c0.8,0,1.5,0.6,1.5,1.5v30.3c0,0.8-0.6,1.4-1.5,1.4h-0.8c-0.8,0-1.5-0.6-1.5-1.4V59.1
	C39.8,58.3,40.4,57.6,41.2,57.6z"/>
<path class="st6" d="M51.6,57.6h0.8c0.8,0,1.5,0.6,1.5,1.5v30.3c0,0.8-0.6,1.4-1.5,1.4h-0.8c-0.8,0-1.5-0.6-1.5-1.4V59.1
	C50.1,58.3,50.8,57.6,51.6,57.6z"/>
<circle class="st6" cx="0.1" cy="47.9" r="0.1"/>
<rect x="388.5" y="67.2" class="st7" width="4.8" height="96"/>
<circle class="st1" cx="244.7" cy="80.4" r="1"/>
<circle class="st1" cx="247.7" cy="80.4" r="1"/>
<circle class="st1" cx="250.6" cy="80.4" r="1"/>
<path class="st2" d="M171.1,57.6h255.8v-5.4h-284c0.8,6.8,1.2,13.7,1.1,20.5v30.8c0,7.6,0.3,13.8,0.8,20c-3-5.5-6.2-10.9-9.8-16.1
	l-25.7-38.4c-5.3-7.8-8.2-13.2-9.6-16.9H70.4c0.8,6.7,1.2,13.4,1.1,20.1v71.1c0,10-0.3,15.9-1.1,21.2h28.8c-0.9-7-1.2-14-1.1-21.1
	v-30.3c0-6.7-0.3-13.4-0.9-20.1c2.9,5.7,6.2,11.3,9.7,16.6l25,37.7c4.6,7,7.7,12,10.1,17.2h29.6c-0.8-6.7-1.1-13.4-1.1-20.1V72.8
	C170.6,66.6,170.7,62,171.1,57.6z"/>
<path class="st1" d="M118.6,96c-1.7-2.7-4.6-4-6.6-2.8s-2.2,4.4-0.5,7.1c1,1.8,2.8,3,4.9,3.2c0.4,0,0.8,0.2,1,0.6l11.7,19.8
	c0.4,0.8,1.4,1,2.2,0.6c0.8-0.4,1.1-1.4,0.6-2.2c0,0,0-0.1,0-0.1L119,102.3C120.1,100.8,120,98.2,118.6,96z"/>
<polyline class="st5" points="63.5,55.6 62.5,52.8 12.4,52.8 "/>
<g>
	<text transform="matrix(1 0 0 1 468.6074 157.3791)" class="st8 st9 st10">E</text>
</g>
</svg>
