<svg xmlns="http://www.w3.org/2000/svg" viewBox="0 0 506.6 213.95"><defs><style>.cls-1{fill:#a97c50;}.cls-2{fill:#00a651;}.cls-3{fill:#febd40;}.cls-4{fill:#36763e;}.cls-5{fill:#f7941d;}.cls-6{fill:#fff;}</style></defs><g id="Layer_2" data-name="Layer 2"><g id="Layer_1-2" data-name="Layer 1"><path class="cls-1" d="M36.34,28.19a30.78,30.78,0,0,0-3.65-3.06l5.79-6.23a40.89,40.89,0,0,0,4.41,4.5L45.7,26c1.8,1.66,3.13,2.84,4.81,4.14a46,46,0,0,0-4.7,4.55l-3.66,3.94a50.72,50.72,0,0,0-4.63,5.47A23.91,23.91,0,0,1,31,42.18a31.94,31.94,0,0,1-8.57-5.74C18,32.29,15.63,27.82,15.48,23c-.18-5.16,2.23-10.71,6.71-15.53C30.8-1.82,41.85-2.49,50.71,5.75c4.4,4.09,6.47,8.57,6.17,13.54a14,14,0,0,1-1.49,5.76l-8.71-5a6,6,0,0,0,.77-4,7.39,7.39,0,0,0-2.54-4.39c-4.5-4.19-10-3.21-15.5,2.7-3,3.27-4.66,6.49-4.69,9.34,0,2.28,1.08,4.55,3.3,6.61a14.26,14.26,0,0,0,6.27,3.48l3.73-4Z"/><path class="cls-2" d="M134.61,104.55a172.27,172.27,0,0,1,9.19,15.18c-.51-5.86-.77-11.73-.77-18.87V71.77a137.9,137.9,0,0,0-1-19.38h27.17a137.9,137.9,0,0,0-1,19.38V139.5a155.91,155.91,0,0,0,1,19H141.25a137.37,137.37,0,0,0-9.57-16.2l-23.6-35.59A151.26,151.26,0,0,1,98.9,91a182.11,182.11,0,0,1,.89,19v28.57a140.58,140.58,0,0,0,1,19.9H73.64c.77-5,1-10.59,1-20V71.39a141.28,141.28,0,0,0-1-19h27.68c1.28,3.44,4.08,8.54,9.06,15.94Z"/><path class="cls-2" d="M249.52,158.25c-.77-4.08-2.3-9.32-6.27-19.93-4.08-11.11-5.62-14-8.81-16.86-2.68-2.43-5.88-3.45-10-3.45h-13v21a135.59,135.59,0,0,0,1,19.29H185a125.68,125.68,0,0,0,1-19.16V70.35a135.67,135.67,0,0,0-1-18.78c5.62.25,10.35.38,19,.38h33.22C258,52,270,62.68,270,81.08c0,9.07-2.56,16.23-7.54,21-3.19,2.93-5.88,4.34-12.14,6.38,6.52,2,9.46,5,13.55,14.06,1.91,4.09,3.7,8.43,9.45,22.23,1.41,3.58,2.94,6.77,6.13,13.54ZM231.37,96.16c7.54,0,12.14-4.6,12.14-11.88s-4.09-10.86-12-10.86H211.44V96.16Z"/><path class="cls-2" d="M363,158.79a105.34,105.34,0,0,0-3.08-13.85L356.45,134H319.9l-3.46,10.9a73.7,73.7,0,0,0-3.21,13.85h-30c1.92-3.85,3.07-6.92,6.15-15.64L317.08,66a77.84,77.84,0,0,0,4.1-13.85h33.47A103,103,0,0,0,359,66l27.83,77.2c2.43,6.79,4.48,12,6.15,15.64ZM338,74,326.06,112.5h24.1Z"/><path class="cls-2" d="M427.49,52.34c-.77,5.23-1,9.57-1,18.89v68.43a122.84,122.84,0,0,0,1,18.9H399.4c.77-5,1-10.35,1-18.9V71.23c0-9.57-.25-13.27-1-18.89Z"/><path class="cls-3" d="M456.81,70.2c0-8.62-.13-12.8-.6-18.63a86,86,0,0,0,9.86.38H480c8.2,0,14.8,4.31,19.27,12.55,4.86,9.12,7.33,22.43,7.33,39.29,0,17.36-2.67,31.31-7.73,40.94-4.47,8.37-10.8,12.67-18.73,12.67H466.07a88,88,0,0,0-9.79.39c.4-5.58.53-9.77.53-18.51Zm22.13,65c4.33,0,7.4-2.15,9.79-6.71,2.74-5.33,4.2-13.82,4.2-24.34,0-10.77-1.26-18.63-3.86-23.58-2.33-4.43-5.53-6.46-10.33-6.46H470v61.09Z"/><path class="cls-1" d="M496.37,214a60.27,60.27,0,0,0-7.84-.34h-15c-3.61,0-4.95,0-7,.15a43.23,43.23,0,0,0,.38-6.94V180.87a49.63,49.63,0,0,0-.38-6.94c1.95.1,3.28.14,7,.14h15.16a57.9,57.9,0,0,0,7.08-.33v8.89a58,58,0,0,0-7.08-.33H476.36v7h10.27a58.13,58.13,0,0,0,7.13-.33v8.79a58.37,58.37,0,0,0-7.13-.33H476.36v8h12.26a64,64,0,0,0,7.75-.33Z"/><path class="cls-4" d="M38.89,159.45h-3a4.78,4.78,0,0,1-4.76-4.76S36,53.84,38.63,53.84l5,100.85A4.78,4.78,0,0,1,38.89,159.45Z"/><rect class="cls-5" x="10.79" y="43.09" width="53.16" height="50.3" rx="12"/><rect class="cls-6" x="19.61" y="53.84" width="3.69" height="33.18" rx="1.45"/><rect class="cls-6" x="29.97" y="53.84" width="3.69" height="33.18" rx="1.45"/><rect class="cls-6" x="39.77" y="53.84" width="3.69" height="33.18" rx="1.45"/><rect class="cls-6" x="50.14" y="53.84" width="3.69" height="33.18" rx="1.45"/><path class="cls-6" d="M19.09,42.74h-.55a6.07,6.07,0,0,1-1.69,2.65,6,6,0,0,1-4.1,1.47A6.19,6.19,0,0,1,9.46,46,26.34,26.34,0,0,1,4.35,48.2a5.85,5.85,0,0,0,3,.83H60.44a5.93,5.93,0,0,0,5.89-5.56C50.61,43.17,34.76,42,19.09,42.74Z"/><path class="cls-6" d="M481.9,144.39c-1.22-2.48-3.66-3.79-5.44-2.91s-2.23,3.6-1,6.09a5.35,5.35,0,0,0,3.94,3.16,1,1,0,0,1,.83.6l8.48,18.13a1.42,1.42,0,0,0,1.83.72,1.4,1.4,0,0,0,.68-1.92l-9.54-18.38C482.78,148.68,482.92,146.45,481.9,144.39Z"/><path class="cls-6" d="M489.35,135.56h0l1.86,3.77a.53.53,0,0,1-.24.7h0a.52.52,0,0,1-.7-.24l-1.61-3.26a.57.57,0,0,0-.76-.26h0a.56.56,0,0,0-.25.76l1.61,3.26a.53.53,0,0,1-.24.7h0a.52.52,0,0,1-.7-.24l-1.61-3.26a.56.56,0,0,0-.76-.26h0a.56.56,0,0,0-.25.76l1.61,3.27a.52.52,0,0,1-.24.69h0a.53.53,0,0,1-.7-.23l-1.86-3.78h0a1,1,0,0,0-.48,1.24l2.08,5.42a.91.91,0,0,0,.76.6l3.38.46L499,164.42a1.39,1.39,0,0,0,1.88.65h0a1.4,1.4,0,0,0,.62-1.88L492,144.81l1.76-3a.84.84,0,0,0,0-.88l-3.1-5A1,1,0,0,0,489.35,135.56Z"/><ellipse class="cls-6" cx="15.58" cy="44.63" rx="4.79" ry="3.81"/><circle class="cls-6" cx="0.13" cy="44.07" r="0.13"/></g></g></svg>