<svg xmlns="http://www.w3.org/2000/svg" xmlns:xlink="http://www.w3.org/1999/xlink" viewBox="0 0 131.27 111.41"><defs><style>.cls-1{fill:url(#linear-gradient);}.cls-2{fill:url(#linear-gradient-2);}.cls-3{fill:url(#linear-gradient-3);}.cls-4{fill:url(#linear-gradient-4);}.cls-5{fill:#f1f2f2;}</style><linearGradient id="linear-gradient" x1="11.22" y1="55.71" x2="131.27" y2="55.71" gradientUnits="userSpaceOnUse"><stop offset="0" stop-color="#fff33b"/><stop offset="0.04" stop-color="#fee72e"/><stop offset="0.12" stop-color="#fed51b"/><stop offset="0.2" stop-color="#fdca10"/><stop offset="0.28" stop-color="#fdc70c"/><stop offset="0.32" stop-color="#fcbd17"/><stop offset="0.67" stop-color="#f28b3f"/><stop offset="0.89" stop-color="#ed683c"/><stop offset="1" stop-color="#ec6d3e"/></linearGradient><linearGradient id="linear-gradient-2" x1="29.83" y1="-4.94" x2="29.83" y2="-4.8" gradientUnits="userSpaceOnUse"><stop offset="0" stop-color="#a97c50"/><stop offset="0.03" stop-color="#8b5e3c"/><stop offset="0.08" stop-color="#7e4a10"/><stop offset="0.12" stop-color="#7a4b1a"/><stop offset="0.2" stop-color="#764c25"/><stop offset="0.28" stop-color="#754c29"/><stop offset="0.67" stop-color="#754c29"/><stop offset="0.89" stop-color="#603913"/><stop offset="1" stop-color="#643800"/></linearGradient><linearGradient id="linear-gradient-3" x1="24.3" y1="25.07" x2="26.51" y2="1.03" gradientUnits="userSpaceOnUse"><stop offset="0" stop-color="#ffd955"/><stop offset="1" stop-color="#fded28" stop-opacity="0"/></linearGradient><linearGradient id="linear-gradient-4" x1="51.55" y1="59.37" x2="41.32" y2="56.73" xlink:href="#linear-gradient-3"/></defs><g id="Layer_2" data-name="Layer 2"><g id="Layer_3" data-name="Layer 3"><path class="cls-1" d="M119.89,19.17a10.91,10.91,0,0,1-1.29.61c-4.16,1.61-8.49.42-9.69-2.66a4.8,4.8,0,0,1-.26-1,11,11,0,0,1-1.53.11c-4.46,0-8.07-2.68-8.07-6,0,0,0-.1,0-.16a10.72,10.72,0,0,1-1.82.16c-4.45,0-8.06-2.68-8.06-6A5.12,5.12,0,0,1,90.94.48a40.1,40.1,0,0,0-6-.48H22.39C16.22,0,11.22,6,11.22,13.42V98c0,7.41,5,13.42,11.17,13.42H84.91c12.8,0,24.39-6.23,32.78-16.32s13.58-24,13.58-39.39A62.35,62.35,0,0,0,119.89,19.17Z"/><path class="cls-2" d="M59.67,0V111.41H13.43A13.43,13.43,0,0,1,0,98V13.42A13.43,13.43,0,0,1,13.43,0Z"/><path class="cls-3" d="M16.3,0H35.12a0,0,0,0,1,0,0V19.1a9.29,9.29,0,0,1-9.29,9.29h-.23A9.29,9.29,0,0,1,16.3,19.1V0A0,0,0,0,1,16.3,0Z"/><path class="cls-4" d="M60.32,24.13a1.21,1.21,0,0,1,.57.15L89.74,38.7a1.41,1.41,0,0,1,0,2.59L72.43,49.94a1.18,1.18,0,0,1-1.15,0l-11-5.48-10.1,5V73.74l10.1,5.05,10.09-5.05V66.82L59.74,61.48a1.4,1.4,0,0,1,0-2.59l17.31-8.66a.84.84,0,0,1,.57-.14,1.37,1.37,0,0,1,.58.14L89.74,56h.14a2.34,2.34,0,0,1,.43.58,1,1,0,0,1,.29.72v26a1.38,1.38,0,0,1-.86,1.29L72.43,93.21,60.89,99a1.23,1.23,0,0,1-1.15,0L48.2,93.21,30.9,84.55A1.37,1.37,0,0,1,30,83.26V40a1,1,0,0,1,.29-.72.85.85,0,0,1,.58-.57L59.74,24.28A.81.81,0,0,1,60.32,24.13ZM32.92,42.3V82.39L47.34,89.6V49.51Zm27.4-15.14L34.65,40l14.13,7.07,11-5.48a1.23,1.23,0,0,1,1.15,0l11,5.48L86,40ZM50.22,76.91V91l10.1,5,10.09-5V76.91l-9.52,4.76a1.23,1.23,0,0,1-1.15,0Zm27.4-23.79L63.49,60.18l8.36,4.19L86,57.3Zm10.1,6.49L73.3,66.82V89.6l14.42-7.21Z"/><path class="cls-5" d="M60.32,24.13a1.21,1.21,0,0,1,.57.15L89.74,38.7a1.41,1.41,0,0,1,0,2.59L72.43,49.94a1.18,1.18,0,0,1-1.15,0l-11-5.48-10.1,5V73.74l10.1,5.05,10.09-5.05V66.82L59.74,61.48a1.4,1.4,0,0,1,0-2.59l17.31-8.66a.84.84,0,0,1,.57-.14,1.37,1.37,0,0,1,.58.14L89.74,56h.14a2.34,2.34,0,0,1,.43.58,1,1,0,0,1,.29.72v26a1.38,1.38,0,0,1-.86,1.29L72.43,93.21,60.89,99a1.23,1.23,0,0,1-1.15,0L48.2,93.21,30.9,84.55A1.37,1.37,0,0,1,30,83.26V40a1,1,0,0,1,.29-.72.85.85,0,0,1,.58-.57L59.74,24.28A.81.81,0,0,1,60.32,24.13ZM32.92,42.3V82.39L47.34,89.6V49.51Zm27.4-15.14L34.65,40l14.13,7.07,11-5.48a1.23,1.23,0,0,1,1.15,0l11,5.48L86,40ZM50.22,76.91V91l10.1,5,10.09-5V76.91l-9.52,4.76a1.23,1.23,0,0,1-1.15,0Zm27.4-23.79L63.49,60.18l8.36,4.19L86,57.3Zm10.1,6.49L73.3,66.82V89.6l14.42-7.21Z"/></g></g></svg>