<svg xmlns="http://www.w3.org/2000/svg" xmlns:xlink="http://www.w3.org/1999/xlink" viewBox="0 0 131.27 160.94"><defs><style>.cls-1{fill:url(#linear-gradient);}.cls-2{fill:url(#linear-gradient-2);}.cls-3{fill:url(#linear-gradient-3);}.cls-4{fill:url(#linear-gradient-4);}.cls-5{font-size:144.21px;fill:#f1f2f2;font-family:SOV_3Dslim;}</style><linearGradient id="linear-gradient" x1="11.22" y1="77" x2="131.27" y2="77" gradientUnits="userSpaceOnUse"><stop offset="0" stop-color="#fff33b"/><stop offset="0.04" stop-color="#fee72e"/><stop offset="0.12" stop-color="#fed51b"/><stop offset="0.2" stop-color="#fdca10"/><stop offset="0.28" stop-color="#fdc70c"/><stop offset="0.32" stop-color="#fcbd17"/><stop offset="0.67" stop-color="#f28b3f"/><stop offset="0.89" stop-color="#ed683c"/><stop offset="1" stop-color="#ec6d3e"/></linearGradient><linearGradient id="linear-gradient-2" x1="29.83" y1="16.36" x2="29.83" y2="16.49" gradientUnits="userSpaceOnUse"><stop offset="0" stop-color="#a97c50"/><stop offset="0.03" stop-color="#8b5e3c"/><stop offset="0.08" stop-color="#7e4a10"/><stop offset="0.12" stop-color="#7a4b1a"/><stop offset="0.2" stop-color="#764c25"/><stop offset="0.28" stop-color="#754c29"/><stop offset="0.67" stop-color="#754c29"/><stop offset="0.89" stop-color="#603913"/><stop offset="1" stop-color="#643800"/></linearGradient><linearGradient id="linear-gradient-3" x1="24.3" y1="46.36" x2="26.51" y2="22.33" gradientUnits="userSpaceOnUse"><stop offset="0" stop-color="#ffd955"/><stop offset="1" stop-color="#fded28" stop-opacity="0"/></linearGradient><linearGradient id="linear-gradient-4" x1="74.1" y1="74.71" x2="48.04" y2="67.99" xlink:href="#linear-gradient-3"/></defs><g id="Layer_2" data-name="Layer 2"><g id="Layer_3" data-name="Layer 3"><path class="cls-1" d="M119.89,40.47a12.75,12.75,0,0,1-1.29.61c-4.16,1.61-8.49.41-9.69-2.67a4.66,4.66,0,0,1-.26-1,9.67,9.67,0,0,1-1.53.12c-4.46,0-8.07-2.69-8.07-6,0-.06,0-.11,0-.16a10.72,10.72,0,0,1-1.82.16c-4.45,0-8.06-2.69-8.06-6a5.1,5.1,0,0,1,1.76-3.73,38.83,38.83,0,0,0-6-.49H22.39c-6.17,0-11.17,6-11.17,13.42v84.57c0,7.41,5,13.42,11.17,13.42H84.91c12.8,0,24.39-6.23,32.78-16.32s13.58-24,13.58-39.39A62.32,62.32,0,0,0,119.89,40.47Z"/><path class="cls-2" d="M59.67,21.29V132.7H13.43A13.43,13.43,0,0,1,0,119.28V34.71A13.43,13.43,0,0,1,13.43,21.29Z"/><path class="cls-3" d="M16.3,21.29H35.12a0,0,0,0,1,0,0V40.4a9.29,9.29,0,0,1-9.29,9.29h-.23A9.29,9.29,0,0,1,16.3,40.4V21.29A0,0,0,0,1,16.3,21.29Z"/><path class="cls-4" d="M60.32,45.43a1.2,1.2,0,0,1,.57.14L89.74,60a1.41,1.41,0,0,1,0,2.6L72.43,71.24a1.23,1.23,0,0,1-1.15,0l-11-5.48-10.1,5V95l10.1,5,10.09-5V88.11L59.74,82.78a1.41,1.41,0,0,1,0-2.6l17.31-8.65a.78.78,0,0,1,.57-.15,1.25,1.25,0,0,1,.58.15l11.54,5.76h.14a2.34,2.34,0,0,1,.43.58,1,1,0,0,1,.29.72v26a1.39,1.39,0,0,1-.86,1.3L72.43,114.5l-11.54,5.77a1.23,1.23,0,0,1-1.15,0L48.2,114.5l-17.3-8.65a1.39,1.39,0,0,1-.87-1.3V61.29a1,1,0,0,1,.29-.72A.89.89,0,0,1,30.9,60L59.74,45.57A.81.81,0,0,1,60.32,45.43ZM32.92,63.6v40.09l14.42,7.21V70.81Zm27.4-15.15L34.65,61.29l14.13,7.06,11-5.48a1.23,1.23,0,0,1,1.15,0l11,5.48L86,61.29ZM50.22,98.21v14.13l10.1,5,10.09-5V98.21L60.89,103a1.18,1.18,0,0,1-1.15,0Zm27.4-23.8L63.49,81.48l8.36,4.18L86,78.59Zm10.1,6.49L73.3,88.11V110.9l14.42-7.21Z"/><text class="cls-5" transform="translate(25.71 118.97)">G</text></g></g></svg>