<svg xmlns="http://www.w3.org/2000/svg" viewBox="0 0 491.38 165.19"><defs><style>.cls-1{fill:#a97c50;stroke:#c2b59b;}.cls-1,.cls-3{stroke-miterlimit:10;}.cls-2,.cls-3{fill:#00a651;}.cls-3{stroke:#006838;}.cls-4{fill:#febd40;}.cls-5{fill:#36763e;}.cls-6{fill:#f7941d;}.cls-7{fill:#fff;}</style></defs><g id="Layer_2" data-name="Layer 2"><g id="Layer_1-2" data-name="Layer 1"><path class="cls-1" d="M36.34,28.69a30.78,30.78,0,0,0-3.65-3.06l5.79-6.23a40.89,40.89,0,0,0,4.41,4.5l2.81,2.62c1.8,1.66,3.13,2.84,4.81,4.14a46,46,0,0,0-4.7,4.55l-3.66,3.94a50.72,50.72,0,0,0-4.63,5.47A23.91,23.91,0,0,1,31,42.68a31.94,31.94,0,0,1-8.57-5.74c-4.47-4.15-6.8-8.62-6.95-13.48-.18-5.16,2.23-10.71,6.71-15.53C30.8-1.32,41.85-2,50.71,6.25c4.4,4.09,6.47,8.57,6.17,13.54a14,14,0,0,1-1.49,5.76l-8.71-5a6,6,0,0,0,.77-4,7.39,7.39,0,0,0-2.54-4.39c-4.5-4.19-10-3.21-15.5,2.7-3,3.27-4.66,6.49-4.69,9.34,0,2.28,1.08,4.55,3.3,6.61a14.26,14.26,0,0,0,6.27,3.48l3.73-4Z"/><path class="cls-2" d="M241.43,163.47c-.7-3.74-2.1-8.52-5.72-18.2-3.73-10.15-5.13-12.83-8.05-15.4a12.77,12.77,0,0,0-9.1-3.15h-11.9v19.13a122.88,122.88,0,0,0,.94,17.62H182.52a115.34,115.34,0,0,0,.93-17.5V83.21a124.21,124.21,0,0,0-.93-17.14c5.13.23,9.45.35,17.38.35h30.33c18.89,0,29.86,9.79,29.86,26.59,0,8.28-2.33,14.82-6.88,19.13-2.92,2.68-5.37,4-11.08,5.83,5.94,1.87,8.63,4.55,12.36,12.84,1.75,3.73,3.38,7.69,8.63,20.29,1.28,3.27,2.68,6.18,5.6,12.37Zm-16.57-56.69c6.88,0,11.08-4.2,11.08-10.85S232.21,86,225,86H206.66v20.77Z"/><path class="cls-2" d="M345,164a95.81,95.81,0,0,0-2.81-12.65l-3.16-9.95H305.68l-3.16,9.95A67.2,67.2,0,0,0,299.6,164H272.2c1.76-3.52,2.81-6.33,5.62-14.29L303.11,79.2a71.69,71.69,0,0,0,3.74-12.64h30.56a94.14,94.14,0,0,0,4,12.64l25.4,70.47c2.23,6.21,4.1,11,5.62,14.29ZM322.19,86.57,311.3,121.7h22Z"/><path class="cls-3" d="M403.9,66.77c-.7,4.78-.93,8.74-.93,17.25v62.47a112.61,112.61,0,0,0,.93,17.25H378.26a111.62,111.62,0,0,0,.93-17.25V84a108.86,108.86,0,0,0-.93-17.25Z"/><path class="cls-4" d="M473.71,158c-1.81,0-2.47,0-3.5.07a21,21,0,0,0,.19-3.47v-13a24.08,24.08,0,0,0-.19-3.47c1,0,1.64.07,3.5.07h7.58a28.93,28.93,0,0,0,3.54-.17v4.45a28.93,28.93,0,0,0-3.54-.17h-6.18v3.49h5.13a29.14,29.14,0,0,0,3.57-.16v2.23c5-9.95,7.57-23.5,7.57-40,0-17.77-3-31.79-8.8-41.41-5.36-8.68-13.29-13.22-23.13-13.22H442.72c-6.64,0-8.64-.14-11.84-.4a190.46,190.46,0,0,1,.72,19.63v72.79c0,9.22-.16,13.63-.64,19.51,3.36-.27,5.6-.41,11.76-.41h16.89a24.21,24.21,0,0,0,16.87-6.4Zm-15.54-17H447.45V76.6h10.48c5.76,0,9.6,2.14,12.4,6.81,3.13,5.21,4.65,13.49,4.65,24.85,0,11.08-1.76,20-5.05,25.64C467.05,138.71,463.37,141,458.17,141Z"/><path class="cls-4" d="M482.71,149.92c-.68,0-1.4-.07-2.47-.07h-5.13v4h5.06c.67-.89,1.32-1.84,1.93-2.84C482.31,150.65,482.51,150.28,482.71,149.92Z"/><path class="cls-5" d="M38.89,163.25h-3a4.78,4.78,0,0,1-4.76-4.76S36,57.64,38.63,57.64l5,100.85A4.78,4.78,0,0,1,38.89,163.25Z"/><rect class="cls-6" x="10.79" y="46.89" width="53.16" height="50.3" rx="12"/><rect class="cls-7" x="19.61" y="57.64" width="3.69" height="33.18" rx="1.45"/><rect class="cls-7" x="29.97" y="57.64" width="3.69" height="33.18" rx="1.45"/><rect class="cls-7" x="39.77" y="57.64" width="3.69" height="33.18" rx="1.45"/><rect class="cls-7" x="50.14" y="57.64" width="3.69" height="33.18" rx="1.45"/><path class="cls-7" d="M19.09,45.76c-.19,0-.37,0-.55,0a6.91,6.91,0,0,1-1.69,3,5.55,5.55,0,0,1-4.1,1.66,5.75,5.75,0,0,1-3.29-1,24.68,24.68,0,0,1-5.11,2.5,5.4,5.4,0,0,0,3,.93H60.44c3.13,0,5.7-2.78,5.89-6.26C50.61,46.24,34.76,44.89,19.09,45.76Z"/><ellipse class="cls-7" cx="15.58" cy="48.43" rx="4.79" ry="3.81"/><circle class="cls-7" cx="0.13" cy="47.87" r="0.13"/><rect class="cls-6" x="388.53" y="66.81" width="4.83" height="96.93"/><ellipse class="cls-7" cx="247.43" cy="80.36" rx="8.37" ry="5.58"/><circle class="cls-7" cx="239.28" cy="86.58" r="1.27"/><circle class="cls-7" cx="236.94" cy="88.92" r="1.06"/><circle class="cls-2" cx="244.67" cy="80.42" r="1.01"/><circle class="cls-2" cx="247.72" cy="80.42" r="1.01"/><circle class="cls-2" cx="250.56" cy="80.42" r="1.01"/><path class="cls-3" d="M171.06,57.64H426.89v-5.4h-284a147.29,147.29,0,0,1,1.08,20.55V103.6c0,7.57.27,13.79.81,20A181.51,181.51,0,0,0,135,107.52L109.34,69.14c-5.27-7.84-8.24-13.25-9.59-16.9H70.42A151.05,151.05,0,0,1,71.5,72.38v71.09c0,10-.27,15.95-1.08,21.22H99.21a148.15,148.15,0,0,1-1.08-21.08V113.33a192.49,192.49,0,0,0-.95-20.14,160.66,160.66,0,0,0,9.73,16.63l25,37.71c4.6,7,7.71,12,10.14,17.16h29.6a164.73,164.73,0,0,1-1.08-20.14V72.79C170.57,66.61,170.7,62,171.06,57.64Z"/><path class="cls-7" d="M118.63,96c-1.68-2.72-4.62-4-6.57-2.75s-2.17,4.38-.5,7.1a6.19,6.19,0,0,0,4.88,3.21,1.18,1.18,0,0,1,1,.6L129.16,124a1.64,1.64,0,0,0,2.19.63,1.61,1.61,0,0,0,.57-2.27L119,102.29C120.1,100.79,120,98.21,118.63,96Z"/><path class="cls-7" d="M347.82,124.85h0l2,4.12a.57.57,0,0,1-.26.76h0a.56.56,0,0,1-.76-.25l-1.76-3.57a.62.62,0,0,0-.83-.28h0a.63.63,0,0,0-.28.83l1.76,3.56a.57.57,0,0,1-.26.76h0a.56.56,0,0,1-.76-.25L344.94,127a.61.61,0,0,0-.82-.28h0a.61.61,0,0,0-.28.83l1.75,3.56a.56.56,0,0,1-.26.76h0a.56.56,0,0,1-.76-.26l-2-4.12h0a1.09,1.09,0,0,0-.53,1.36l2.27,5.91a1,1,0,0,0,.83.66l3.69.5,9.58,20.46a1.51,1.51,0,0,0,2,.72h0a1.52,1.52,0,0,0,.68-2.06L350.69,135l1.92-3.31a.9.9,0,0,0,0-.95l-3.38-5.44A1.1,1.1,0,0,0,347.82,124.85Z"/></g></g></svg>