<svg xmlns="http://www.w3.org/2000/svg" viewBox="0 0 462.15 205.05"><defs><style>.cls-1{fill:#a97c50;}.cls-2{fill:#00a651;}.cls-3{fill:#36763e;}.cls-4{fill:#fff;}.cls-5{fill:#f7941d;}.cls-6{font-size:122.85px;fill:#febd40;font-family:HiraKakuStd-W8-83pv-RKSJ-H, Hiragino Kaku Gothic Std;}</style></defs><g id="Layer_2" data-name="Layer 2"><g id="Layer_1-2" data-name="Layer 1"><path class="cls-1" d="M34.92,25.43a35.81,35.81,0,0,0-3.34-2.8L36.82,17a42.48,42.48,0,0,0,4,4.07l2.53,2.35a50.26,50.26,0,0,0,4.34,3.7,44.2,44.2,0,0,0-4.25,4.07l-3.35,3.52a37.45,37.45,0,0,0-4.15,5A22.08,22.08,0,0,1,30,38a31.81,31.81,0,0,1-7.77-5.15c-4-3.8-6.15-7.78-6.33-12.12-.18-4.7,2-9.67,6.06-14,8-8.41,17.89-9,25.94-1.54,4,3.7,5.87,7.77,5.6,12.2a13.25,13.25,0,0,1-1.35,5.24l-7.87-4.52a5.54,5.54,0,0,0,.73-3.61,6.91,6.91,0,0,0-2.26-4c-4.07-3.79-9-2.89-14,2.44-2.71,3-4.25,5.88-4.25,8.41,0,2.08,1,4.06,3,6a12.79,12.79,0,0,0,5.7,3.17l3.34-3.62Z"/><path class="cls-2" d="M222.49,141.34c-.67-3.45-1.93-7.82-5.3-16.74-3.45-9.33-4.71-11.77-7.4-14.21a11.89,11.89,0,0,0-8.41-2.86H190.44v17.66a117.83,117.83,0,0,0,.84,16.24h-23a104.14,104.14,0,0,0,.84-16.15V67.41a111.21,111.21,0,0,0-.84-15.82c4.71.17,8.75.34,16,.34h27.92c17.5.09,27.59,9.09,27.59,24.56,0,7.66-2.18,13.63-6.31,17.67-2.69,2.44-5,3.61-10.17,5.38,5.46,1.68,8,4.2,11.44,11.86,1.59,3.45,3.11,7.06,8,18.67,1.17,3,2.44,5.72,5.13,11.36ZM207.27,89.19c6.3,0,10.17-3.87,10.17-10S214,70,207.35,70H190.44V89.11h16.83Z"/><path class="cls-2" d="M318,141.85a80.43,80.43,0,0,0-2.61-11.69L312.41,121H281.62l-2.94,9.17A60.18,60.18,0,0,0,276,141.85H250.75a103.31,103.31,0,0,0,5.13-13.12l23.47-64.94a63.63,63.63,0,0,0,3.45-11.61H311a79.14,79.14,0,0,0,3.7,11.61l23.38,64.94c2,5.72,3.79,10.09,5.13,13.12Zm-21-71.33-10,32.38h20.27Z"/><path class="cls-2" d="M372.21,52.27c-.67,4.37-.84,8.07-.84,15.9V125.7a100.9,100.9,0,0,0,.84,15.9H348.57a99.37,99.37,0,0,0,.85-15.9V68.17c0-8.08-.17-11.19-.85-15.9Z"/><path class="cls-1" d="M462,138.86a33.14,33.14,0,0,0-5.07.63l-9.7,1.59c-2.32.38-3.23.53-4.51.8a35.56,35.56,0,0,0-.47-4.5l-2.75-16.8a35.23,35.23,0,0,0-1-4.42c1.3-.15,2.14-.28,4.53-.67l9.83-1.61c1.55-.25,3-.56,4.55-.94l.94,5.75a28.57,28.57,0,0,0-4.62.55l-7.95,1.3.74,4.53,6.66-1.09c1.55-.25,3.09-.57,4.56-.94l.92,5.68a27.51,27.51,0,0,0-4.62.56l-6.65,1.09.84,5.17,8-1.3q2.52-.42,5-1l.92,5.62Z"/><path class="cls-3" d="M36.19,142.39H33.48a4.4,4.4,0,0,1-4.34-4.34s4.43-91.19,6.78-91.19l4.52,91.19A4.27,4.27,0,0,1,36.19,142.39Z"/><path class="cls-4" d="M20.1,47h.72a1.33,1.33,0,0,1,1.36,1.35V75.69A1.26,1.26,0,0,1,20.82,77H20.1a1.32,1.32,0,0,1-1.36-1.26V48.3A1.39,1.39,0,0,1,20.1,47Z"/><path class="cls-4" d="M29.41,47h.72a1.33,1.33,0,0,1,1.36,1.35V75.69A1.26,1.26,0,0,1,30.13,77h-.72a1.32,1.32,0,0,1-1.36-1.26V48.3A1.46,1.46,0,0,1,29.41,47Z"/><path class="cls-4" d="M38.27,47H39a1.33,1.33,0,0,1,1.36,1.35V75.69A1.26,1.26,0,0,1,39,77h-.72a1.31,1.31,0,0,1-1.36-1.26V48.3A1.45,1.45,0,0,1,38.27,47Z"/><path class="cls-4" d="M47.67,47h.72a1.33,1.33,0,0,1,1.36,1.35V75.69A1.26,1.26,0,0,1,48.39,77h-.72a1.31,1.31,0,0,1-1.36-1.26V48.3A1.39,1.39,0,0,1,47.67,47Z"/><path class="cls-5" d="M55.62,42.61H12.24a11.09,11.09,0,0,0-1.54,5.51V71.89A10.88,10.88,0,0,0,21.55,82.74H48A10.88,10.88,0,0,0,58.87,71.89V48.12a11,11,0,0,0-1.62-5.69A10.16,10.16,0,0,1,55.62,42.61Z"/><circle class="cls-4" cx="0.1" cy="20.27" r="0.1"/><path class="cls-4" d="M20.1,47h.72a1.33,1.33,0,0,1,1.36,1.35V75.69A1.26,1.26,0,0,1,20.82,77H20.1a1.32,1.32,0,0,1-1.36-1.26V48.3A1.39,1.39,0,0,1,20.1,47Z"/><path class="cls-4" d="M29.41,47h.72a1.33,1.33,0,0,1,1.36,1.35V75.69A1.26,1.26,0,0,1,30.13,77h-.72a1.32,1.32,0,0,1-1.36-1.26V48.3A1.46,1.46,0,0,1,29.41,47Z"/><path class="cls-4" d="M38.27,47H39a1.33,1.33,0,0,1,1.36,1.35V75.69A1.26,1.26,0,0,1,39,77h-.72a1.31,1.31,0,0,1-1.36-1.26V48.3A1.45,1.45,0,0,1,38.27,47Z"/><path class="cls-4" d="M47.67,47h.72a1.33,1.33,0,0,1,1.36,1.35V75.69A1.26,1.26,0,0,1,48.39,77h-.72a1.31,1.31,0,0,1-1.36-1.26V48.3A1.39,1.39,0,0,1,47.67,47Z"/><path class="cls-2" d="M152.28,44.37h231.2V39.49H126.8a142.06,142.06,0,0,1,1,18.53V85.86c0,6.86.27,12.47.72,18.07a160.79,160.79,0,0,0-8.85-14.55L96.43,54.67C91.64,47.62,89,42.74,87.75,39.4H61.27a136.53,136.53,0,0,1,1,18.17v64.26c0,9-.27,14.37-1,19.16h26a133.24,133.24,0,0,1-1-19.07V94.53q0-9.07-.82-18.16a155.46,155.46,0,0,0,8.77,15l22.59,34.07A120.62,120.62,0,0,1,126,141h26.76a151.57,151.57,0,0,1-1-18.17V58.11C151.83,52.5,151.92,48.35,152.28,44.37Z"/><text class="cls-6" transform="translate(383.48 137.73) scale(0.54 1)">D</text></g></g></svg>