<?xml version="1.0" encoding="utf-8"?>
<!-- Generator: Adobe Illustrator 24.3.0, SVG Export Plug-In . SVG Version: 6.00 Build 0)  -->
<svg version="1.1" id="Layer_1" xmlns="http://www.w3.org/2000/svg" xmlns:xlink="http://www.w3.org/1999/xlink" x="0px" y="0px"
	 viewBox="0 0 435.9 103.1" style="enable-background:new 0 0 435.9 103.1;" xml:space="preserve">
<style type="text/css">
	.st0{fill:#A97C50;}
	.st1{fill:#00A651;}
	.st2{fill:#36763E;}
	.st3{fill:#F7941D;}
	.st4{fill:#FFFFFF;}
	.st5{enable-background:new    ;}
	.st6{fill:#FEBD40;}
</style>
<path class="st0" d="M24.4,25.8c-1.1-1-2.2-1.9-3.3-2.8l5.2-5.6c1.2,1.4,2.6,2.8,4,4.1l2.5,2.4c1.4,1.3,2.8,2.5,4.3,3.7
	c-1.5,1.3-2.9,2.6-4.2,4.1l-3.4,3.5c-1.5,1.5-2.9,3.2-4.2,5c-2.1-0.3-4-0.9-5.9-1.7c-2.8-1.3-5.4-3.1-7.8-5.2
	c-4-3.8-6.2-7.8-6.3-12.1c-0.2-4.7,2-9.7,6.1-14c8-8.4,17.9-9,25.9-1.5c4,3.7,5.9,7.8,5.6,12.2c-0.1,1.8-0.5,3.6-1.3,5.2l-7.9-4.5
	c0.6-1.1,0.9-2.4,0.7-3.6c-0.3-1.6-1.1-3-2.3-4c-4.1-3.8-9-2.9-14,2.4c-2.7,3-4.2,5.9-4.2,8.4c0,2.1,1,4.1,3,6
	c1.6,1.5,3.6,2.6,5.7,3.2l3.3-3.6L24.4,25.8z"/>
<path class="st1" d="M212,102.5c-0.7-3.4-1.9-7.8-5.3-16.7c-3.4-9.3-4.7-11.8-7.4-14.2c-2.3-2-5.3-3-8.4-2.9H180v17.7
	c-0.1,5.4,0.2,10.9,0.8,16.2h-23c0.7-5.4,1-10.8,0.8-16.1v-58c0.1-5.3-0.2-10.6-0.8-15.8c4.7,0.2,8.8,0.3,16,0.3h27.9
	c17.5,0.1,27.6,9.1,27.6,24.6c0,7.7-2.2,13.6-6.3,17.7c-2.7,2.4-5,3.6-10.2,5.4c5.5,1.7,8,4.2,11.4,11.9c1.6,3.4,3.1,7.1,8,18.7
	c1.2,3,2.4,5.7,5.1,11.4L212,102.5z M196.8,50.3c6.3,0,10.2-3.9,10.2-10s-3.4-9.2-10.1-9.2H180v19.1L196.8,50.3L196.8,50.3z"/>
<path class="st1" d="M307.5,103c-0.6-4-1.5-7.9-2.6-11.7l-3-9.2h-30.8l-2.9,9.2c-1.3,3.8-2.2,7.7-2.7,11.7h-25.2
	c2-4.3,3.7-8.6,5.1-13.1L268.9,25c1.5-3.8,2.7-7.6,3.5-11.6h28.2c0.9,4,2.2,7.8,3.7,11.6l23.4,64.9c2,5.7,3.8,10.1,5.1,13.1H307.5z
	 M286.5,31.6l-10,32.4h20.3L286.5,31.6z"/>
<path class="st1" d="M361.7,13.4c-0.7,4.4-0.8,8.1-0.8,15.9v57.5c-0.1,5.3,0.1,10.6,0.8,15.9h-23.6c0.7-5.3,1-10.6,0.9-15.9V29.3
	c0-8.1-0.2-11.2-0.9-15.9H361.7z"/>
<path class="st2" d="M25.7,103.1H23c-2.4,0-4.3-1.1-4.3-2.3c0,0,4.4-48.6,6.8-48.6l4.5,48.6C30,102,28.1,103.1,25.7,103.1
	L25.7,103.1z"/>
<path class="st3" d="M44.9,30.3H1.5C0.5,32,0,33.9,0,35.8v23.8c0,6,4.9,10.8,10.8,10.8h26.5c6,0,10.9-4.9,10.9-10.8V35.8
	c0-2-0.6-4-1.6-5.7C46,30.3,45.5,30.3,44.9,30.3z"/>
<circle class="st4" cx="-10.4" cy="-18.6" r="0.1"/>
<path class="st4" d="M9.4,34.8h0.7c0.7,0,1.3,0.6,1.4,1.3c0,0,0,0,0,0.1v27.3c0,0.7-0.5,1.3-1.2,1.3c-0.1,0-0.1,0-0.2,0H9.4
	c-0.7,0-1.3-0.5-1.4-1.3V36C8.1,35.3,8.7,34.8,9.4,34.8z"/>
<path class="st4" d="M18.7,34.8h0.7c0.7,0,1.3,0.6,1.4,1.3c0,0,0,0,0,0.1v27.3c0,0.7-0.5,1.3-1.2,1.3c-0.1,0-0.1,0-0.2,0h-0.7
	c-0.7,0-1.3-0.5-1.4-1.3V36C17.4,35.3,18,34.8,18.7,34.8z"/>
<path class="st4" d="M27.6,34.8h0.7c0.7,0,1.3,0.6,1.4,1.3c0,0,0,0,0,0.1v27.3c0,0.7-0.5,1.3-1.2,1.3c-0.1,0-0.1,0-0.2,0h-0.7
	c-0.7,0-1.3-0.5-1.4-1.3l0,0V36C26.3,35.3,26.9,34.8,27.6,34.8z"/>
<path class="st4" d="M37,34.8h0.7c0.7,0,1.3,0.6,1.4,1.3c0,0,0,0,0,0.1v27.3c0,0.7-0.5,1.3-1.2,1.3c-0.1,0-0.1,0-0.2,0H37
	c-0.7,0-1.3-0.5-1.4-1.3l0,0V36C35.7,35.3,36.2,34.8,37,34.8z"/>
<path class="st1" d="M141.8,5.5H373V0.6H116.3c0.7,6.1,1.1,12.3,1,18.5v27.8c0,6.9,0.3,12.5,0.7,18.1c-2.7-5-5.6-9.9-8.8-14.6
	L85.9,15.8c-4.8-7-7.4-11.9-8.7-15.3H50.8c0.7,6,1.1,12.1,1,18.2V83c0,9-0.3,14.4-1,19.2h26c-0.8-6.3-1.1-12.7-1-19.1V55.6
	c0-6-0.3-12.1-0.8-18.2c2.6,5.2,5.6,10.2,8.8,15l22.6,34.1c3.4,4.9,6.5,10.2,9.2,15.6h26.8c-0.7-6-1-12.1-1-18.2V19.2
	C141.3,13.6,141.4,9.5,141.8,5.5z"/>
<g class="st5">
	<path class="st6" d="M377.7,18.1c0-8.4-0.1-12.4-0.6-18.1c2.7,0.2,4.3,0.4,9.8,0.4h13.9c8.2,0,14.7,4.2,19.2,12.2
		c4.8,8.8,7.3,21.7,7.3,38.1c0,16.8-2.7,30.3-7.7,39.7c-4.4,8.1-10.7,12.3-18.6,12.3h-14c-5.1,0-7,0.1-9.8,0.4
		c0.4-5.4,0.5-9.5,0.5-17.9L377.7,18.1L377.7,18.1z M399.7,81.2c4.3,0,7.4-2.1,9.8-6.5c2.7-5.2,4.2-13.4,4.2-23.6
		c0-10.4-1.3-18.1-3.8-22.8c-2.3-4.3-5.5-6.3-10.3-6.3h-8.7v59.2H399.7z"/>
</g>
<path class="st0" d="M435.9,100c-1.7,0.1-3.4,0.3-5.1,0.6l-9.7,1.6c-2.3,0.4-3.2,0.5-4.5,0.8c-0.1-1.5-0.2-3-0.5-4.5l-2.8-16.8
	c-0.2-1.5-0.6-3-1-4.4c1.3-0.2,2.1-0.3,4.5-0.7l9.8-1.6c1.5-0.2,3-0.6,4.5-0.9l0.9,5.8c-1.6,0.1-3.1,0.2-4.6,0.6l-8,1.3l0.7,4.5
	l6.7-1.1c1.5-0.2,3.1-0.6,4.6-0.9l0.9,5.7c-1.6,0.1-3.1,0.2-4.6,0.6l-6.6,1.1l0.8,5.2l8-1.3c1.7-0.3,3.3-0.6,5-1l0.9,5.6L435.9,100z
	"/>
</svg>
