<svg id="Layer_1" data-name="Layer 1" xmlns="http://www.w3.org/2000/svg" viewBox="0 0 500.27 475.61"><defs><style>.cls-1,.cls-2,.cls-3{fill:#fff;stroke-miterlimit:10;}.cls-1,.cls-3{stroke:#000;stroke-width:35px;}.cls-1{stroke-linecap:round;}.cls-2{stroke:#231f20;stroke-width:3px;}</style></defs><path class="cls-1" d="M472.17,356.56v177.3a1.79,1.79,0,0,1-1.87,1.71H116.91a1.84,1.84,0,0,1-1.94-1.7h0V96.66a1.79,1.79,0,0,1,1.87-1.7H470.23a1.86,1.86,0,0,1,1.94,1.7h0v26" transform="translate(-97.47 -77.46)"/><path d="M404.1,356.56H246.32c-9.89,0-18-7-18-15.6h0c0-8.6,8.06-15.6,18-15.6h157.9c9.89,0,17.95,7,17.95,15.6h0C422.05,349.56,414,356.56,404.1,356.56Z" transform="translate(-97.47 -77.46)"/><path class="cls-2" d="M472.17,410.16" transform="translate(-97.47 -77.46)"/><circle cx="92.5" cy="100.61" r="24.7"/><path d="M404,193.66H251.5c-9.94,0-18-7-18-15.6h0c0-8.6,8.09-15.6,18-15.6H404.17c9.94,0,18,7,18,15.6h0C422.05,186.66,414,193.66,404,193.66Z" transform="translate(-97.47 -77.46)"/><circle cx="92.5" cy="182.01" r="24.7"/><path d="M334.81,275.06H251.73c-10.12,0-18.36-7-18.36-15.6h0c0-8.6,8.24-15.6,18.36-15.6h83.08c10.12,0,18.36,7,18.36,15.6h0C353.17,268.16,344.93,275.06,334.81,275.06Z" transform="translate(-97.47 -77.46)"/><circle cx="91.6" cy="263.51" r="24.7"/><circle cx="92.5" cy="344.91" r="24.7"/><path d="M404,438H251.5c-9.94,0-18-7-18-15.6h0c0-8.6,8.09-15.6,18-15.6H404.17c9.94,0,18,7,18,15.6h0C422.05,431,414,438,404,438Z" transform="translate(-97.47 -77.46)"/><path class="cls-3" d="M464,105.48h29.06a21.76,21.76,0,0,1,21.76,21.76V345.9a11,11,0,0,1-11,11H453.24a11,11,0,0,1-11-11V127.24A21.76,21.76,0,0,1,464,105.48Z" transform="translate(177.29 -337.1) rotate(41.67)"/><path class="cls-3" d="M323.88,414.4l97-66a4.43,4.43,0,0,0,.45-7l-47.86-42.59a2.2,2.2,0,0,0-3.42.63L314.5,406.05A6.47,6.47,0,0,0,323.88,414.4Z" transform="translate(-97.47 -77.46)"/></svg>