<?xml version="1.0" encoding="utf-8"?>
<!-- Generator: Adobe Illustrator 24.3.0, SVG Export Plug-In . SVG Version: 6.00 Build 0)  -->
<svg version="1.1" id="Layer_1" xmlns="http://www.w3.org/2000/svg" xmlns:xlink="http://www.w3.org/1999/xlink" x="0px" y="0px"
	 viewBox="0 0 451.5 141.4" style="enable-background:new 0 0 451.5 141.4;" xml:space="preserve">
<style type="text/css">
	.st0{fill:#A97C50;}
	.st1{fill:#00A651;}
	.st2{fill:#36763E;}
	.st3{fill:#FFFFFF;}
	.st4{fill:#F7941D;}
	.st5{enable-background:new    ;}
	.st6{fill:#FEBD40;}
</style>
<path class="st0" d="M24.3,25.4c-1.1-1-2.2-1.9-3.3-2.8l5.2-5.6c1.2,1.4,2.6,2.8,4,4.1l2.5,2.4c1.4,1.3,2.8,2.5,4.3,3.7
	c-1.5,1.3-2.9,2.6-4.2,4.1l-3.4,3.5c-1.5,1.5-2.9,3.2-4.2,5c-2.1-0.3-4-0.9-5.9-1.7c-2.8-1.3-5.4-3.1-7.8-5.2
	c-4-3.8-6.2-7.8-6.3-12.1c-0.2-4.7,2-9.7,6.1-14c8-8.4,17.9-9,25.9-1.5c4,3.7,5.9,7.8,5.6,12.2c-0.1,1.8-0.5,3.6-1.3,5.2l-7.9-4.5
	c0.6-1.1,0.9-2.4,0.7-3.6c-0.3-1.6-1.1-3-2.3-4c-4.1-3.8-9-2.9-14,2.4c-2.7,3-4.2,5.9-4.2,8.4c0,2.1,1,4.1,3,6
	c1.6,1.5,3.6,2.6,5.7,3.2l3.3-3.6L24.3,25.4z"/>
<path class="st1" d="M211.9,141.4c-0.7-3.4-1.9-7.8-5.3-16.7c-3.4-9.3-4.7-11.8-7.4-14.2c-2.3-2-5.3-3-8.4-2.9h-10.9v17.7
	c-0.1,5.4,0.2,10.9,0.8,16.2h-23c0.7-5.4,1-10.8,0.8-16.1v-58c0.1-5.3-0.2-10.6-0.8-15.8c4.7,0.2,8.8,0.3,16,0.3h27.9
	c17.5,0.1,27.6,9.1,27.6,24.6c0,7.7-2.2,13.6-6.3,17.7c-2.7,2.4-5,3.6-10.2,5.4c5.5,1.7,8,4.2,11.4,11.9c1.6,3.4,3.1,7.1,8,18.7
	c1.2,3,2.4,5.7,5.1,11.4L211.9,141.4z M196.7,89.2c6.3,0,10.2-3.9,10.2-10s-3.4-9.2-10.1-9.2h-16.9v19.1L196.7,89.2L196.7,89.2z"/>
<path class="st1" d="M307.4,141.9c-0.6-4-1.5-7.9-2.6-11.7l-3-9.2H271l-2.9,9.2c-1.3,3.8-2.2,7.7-2.7,11.7h-25.2
	c2-4.3,3.7-8.6,5.1-13.1l23.5-64.9c1.5-3.8,2.7-7.6,3.5-11.6h28.2c0.9,4,2.2,7.8,3.7,11.6l23.4,64.9c2,5.7,3.8,10.1,5.1,13.1H307.4z
	 M286.4,70.5l-10,32.4h20.3L286.4,70.5z"/>
<path class="st1" d="M361.6,52.3c-0.7,4.4-0.8,8.1-0.8,15.9v57.5c-0.1,5.3,0.1,10.6,0.8,15.9H338c0.7-5.3,1-10.6,0.9-15.9V68.2
	c0-8.1-0.2-11.2-0.9-15.9L361.6,52.3z"/>
<path class="st0" d="M451.4,138.9c-1.7,0.1-3.4,0.3-5.1,0.6l-9.7,1.6c-2.3,0.4-3.2,0.5-4.5,0.8c-0.1-1.5-0.2-3-0.5-4.5l-2.8-16.8
	c-0.2-1.5-0.6-3-1-4.4c1.3-0.2,2.1-0.3,4.5-0.7l9.8-1.6c1.5-0.2,3-0.6,4.5-0.9l0.9,5.8c-1.6,0.1-3.1,0.2-4.6,0.6l-8,1.3l0.7,4.5
	l6.7-1.1c1.5-0.2,3.1-0.6,4.6-0.9l0.9,5.7c-1.6,0.1-3.1,0.2-4.6,0.6l-6.6,1.1l0.8,5.2l8-1.3c1.7-0.3,3.3-0.6,5-1l0.9,5.6
	L451.4,138.9z"/>
<path class="st2" d="M25.6,142.4h-2.7c-2.4,0-4.3-2-4.3-4.3c0,0,4.4-91.2,6.8-91.2l4.5,91.2C29.9,140.4,28,142.4,25.6,142.4
	L25.6,142.4z"/>
<path class="st3" d="M9.5,47h0.7c0.7,0,1.3,0.6,1.4,1.3c0,0,0,0,0,0.1v27.3c0,0.7-0.5,1.3-1.2,1.3c-0.1,0-0.1,0-0.2,0H9.5
	c-0.7,0-1.3-0.5-1.4-1.3V48.3C8.2,47.6,8.8,47,9.5,47z"/>
<path class="st3" d="M18.8,47h0.7c0.7,0,1.3,0.6,1.4,1.3c0,0,0,0,0,0.1v27.3c0,0.7-0.5,1.3-1.2,1.3c-0.1,0-0.1,0-0.2,0h-0.7
	c-0.7,0-1.3-0.5-1.4-1.3V48.3C17.5,47.6,18.1,47.1,18.8,47z"/>
<path class="st3" d="M27.7,47h0.7c0.7,0,1.3,0.6,1.4,1.3c0,0,0,0,0,0.1v27.3c0,0.7-0.5,1.3-1.2,1.3c-0.1,0-0.1,0-0.2,0h-0.7
	c-0.7,0-1.3-0.5-1.4-1.3l0,0V48.3C26.4,47.6,27,47.1,27.7,47z"/>
<path class="st3" d="M37.1,47h0.7c0.7,0,1.3,0.6,1.4,1.3c0,0,0,0,0,0.1v27.3c0,0.7-0.5,1.3-1.2,1.3c-0.1,0-0.1,0-0.2,0h-0.7
	c-0.7,0-1.3-0.5-1.4-1.3l0,0V48.3C35.8,47.6,36.3,47,37.1,47z"/>
<path class="st4" d="M45,42.6H1.6c-1,1.7-1.5,3.6-1.5,5.5v23.8c0,6,4.9,10.8,10.8,10.8h26.5c6,0,10.9-4.9,10.9-10.8V48.1
	c0-2-0.6-4-1.6-5.7C46.1,42.6,45.6,42.6,45,42.6z"/>
<circle class="st3" cx="-10.5" cy="20.3" r="0.1"/>
<path class="st3" d="M9.5,47h0.7c0.7,0,1.3,0.6,1.4,1.3c0,0,0,0,0,0.1v27.3c0,0.7-0.5,1.3-1.2,1.3c-0.1,0-0.1,0-0.2,0H9.5
	c-0.7,0-1.3-0.5-1.4-1.3V48.3C8.2,47.6,8.8,47,9.5,47z"/>
<path class="st3" d="M18.8,47h0.7c0.7,0,1.3,0.6,1.4,1.3c0,0,0,0,0,0.1v27.3c0,0.7-0.5,1.3-1.2,1.3c-0.1,0-0.1,0-0.2,0h-0.7
	c-0.7,0-1.3-0.5-1.4-1.3V48.3C17.5,47.6,18.1,47.1,18.8,47z"/>
<path class="st3" d="M27.7,47h0.7c0.7,0,1.3,0.6,1.4,1.3c0,0,0,0,0,0.1v27.3c0,0.7-0.5,1.3-1.2,1.3c-0.1,0-0.1,0-0.2,0h-0.7
	c-0.7,0-1.3-0.5-1.4-1.3l0,0V48.3C26.4,47.6,27,47.1,27.7,47z"/>
<path class="st3" d="M37.1,47h0.7c0.7,0,1.3,0.6,1.4,1.3c0,0,0,0,0,0.1v27.3c0,0.7-0.5,1.3-1.2,1.3c-0.1,0-0.1,0-0.2,0h-0.7
	c-0.7,0-1.3-0.5-1.4-1.3l0,0V48.3C35.8,47.6,36.3,47,37.1,47z"/>
<path class="st1" d="M141.7,44.4h231.2v-4.9H116.2c0.7,6.1,1.1,12.3,1,18.5v27.8c0,6.9,0.3,12.5,0.7,18.1c-2.7-5-5.6-9.9-8.8-14.6
	L85.8,54.7c-4.8-7-7.4-11.9-8.7-15.3H50.7c0.7,6,1.1,12.1,1,18.2v64.3c0,9-0.3,14.4-1,19.2h26c-0.8-6.3-1.1-12.7-1-19.1V94.5
	c0-6-0.3-12.1-0.8-18.2c2.6,5.2,5.6,10.2,8.8,15l22.6,34.1c3.4,4.9,6.5,10.2,9.2,15.6h26.8c-0.7-6-1-12.1-1-18.2V58.1
	C141.2,52.5,141.3,48.4,141.7,44.4z"/>
<g class="st5">
	<path class="st6" d="M377.6,57c0-8.4-0.1-12.4-0.6-18.1c2.7,0.2,4.3,0.4,9.8,0.4h13.9c8.2,0,14.7,4.2,19.2,12.2
		c4.8,8.8,7.3,21.7,7.3,38.1c0,16.8-2.7,30.3-7.7,39.7c-4.4,8.1-10.7,12.3-18.6,12.3h-14c-5.1,0-7,0.1-9.8,0.4
		c0.4-5.4,0.5-9.5,0.5-17.9V57z M399.6,120.1c4.3,0,7.4-2.1,9.8-6.5c2.7-5.2,4.2-13.4,4.2-23.6c0-10.4-1.3-18.1-3.8-22.8
		c-2.3-4.3-5.5-6.3-10.3-6.3h-8.7v59.2H399.6z"/>
</g>
</svg>
