<?xml version="1.0" encoding="utf-8"?>
<!-- Generator: Adobe Illustrator 24.3.0, SVG Export Plug-In . SVG Version: 6.00 Build 0)  -->
<svg version="1.1" id="Layer_1" xmlns="http://www.w3.org/2000/svg" xmlns:xlink="http://www.w3.org/1999/xlink" x="0px" y="0px"
	 viewBox="0 0 131.3 160.9" style="enable-background:new 0 0 131.3 160.9;" xml:space="preserve">
<style type="text/css">
	.st0{fill:url(#SVGID_1_);}
	.st1{fill:url(#SVGID_2_);}
	.st2{fill:url(#SVGID_3_);}
	.st3{fill:#FFFFFF;}
</style>
<linearGradient id="SVGID_1_" gradientUnits="userSpaceOnUse" x1="10.5141" y1="78.9624" x2="130.5674" y2="78.9624" gradientTransform="matrix(1 0 0 -1 0 161.8898)">
	<stop  offset="0" style="stop-color:#FFF33B"/>
	<stop  offset="4.000000e-02" style="stop-color:#FEE72E"/>
	<stop  offset="0.12" style="stop-color:#FED51B"/>
	<stop  offset="0.2" style="stop-color:#FDCA10"/>
	<stop  offset="0.28" style="stop-color:#FDC70C"/>
	<stop  offset="0.32" style="stop-color:#FCBD17"/>
	<stop  offset="0.67" style="stop-color:#F28B3F"/>
	<stop  offset="0.89" style="stop-color:#ED683C"/>
	<stop  offset="1" style="stop-color:#EC6D3E"/>
</linearGradient>
<path class="st0" d="M119.2,46.4c-0.4,0.2-0.8,0.4-1.3,0.6c-4.2,1.6-8.5,0.4-9.7-2.7c-0.1-0.3-0.2-0.7-0.3-1c-0.5,0.1-1,0.1-1.5,0.1
	c-4.5,0-8.1-2.7-8.1-6c0-0.1,0-0.1,0-0.2c-0.6,0.1-1.2,0.2-1.8,0.2c-4.4,0-8.1-2.7-8.1-6c0-1.4,0.7-2.8,1.8-3.7c-2-0.3-4-0.5-6-0.5
	H21.7c-6.2,0-11.2,6-11.2,13.4v84.6c0,7.4,5,13.4,11.2,13.4h62.5c12.8,0,24.4-6.2,32.8-16.3s13.6-24,13.6-39.4
	C130.7,69.9,126.7,57.1,119.2,46.4z"/>
<linearGradient id="SVGID_2_" gradientUnits="userSpaceOnUse" x1="29.1291" y1="139.6174" x2="29.1291" y2="139.4874" gradientTransform="matrix(1 0 0 -1 0 161.8898)">
	<stop  offset="0" style="stop-color:#A97C50"/>
	<stop  offset="3.000000e-02" style="stop-color:#8B5E3C"/>
	<stop  offset="8.000000e-02" style="stop-color:#7E4A10"/>
	<stop  offset="0.12" style="stop-color:#7A4B1A"/>
	<stop  offset="0.2" style="stop-color:#764C25"/>
	<stop  offset="0.28" style="stop-color:#754C29"/>
	<stop  offset="0.67" style="stop-color:#754C29"/>
	<stop  offset="0.89" style="stop-color:#603913"/>
	<stop  offset="1" style="stop-color:#643800"/>
</linearGradient>
<path class="st1" d="M59,27.2v111.4H12.7c-7.4,0-13.4-6-13.4-13.4V40.6c0-7.4,6-13.4,13.4-13.4H59z"/>
<linearGradient id="SVGID_3_" gradientUnits="userSpaceOnUse" x1="23.5971" y1="109.6171" x2="25.8071" y2="133.6471" gradientTransform="matrix(1 0 0 -1 0 161.8898)">
	<stop  offset="0" style="stop-color:#FFD955"/>
	<stop  offset="1" style="stop-color:#FDED28;stop-opacity:0"/>
</linearGradient>
<path class="st2" d="M15.6,27.2h18.8l0,0v19.1c0,5.1-4.2,9.3-9.3,9.3h0h-0.2c-5.1,0-9.3-4.1-9.3-9.3c0,0,0,0,0,0V27.2L15.6,27.2z"/>
<path class="st3" d="M59.6,51.3c0.2,0,0.4,0,0.6,0.1L89,65.9c0.7,0.3,1.1,1.1,0.8,1.8c-0.1,0.3-0.4,0.6-0.8,0.8l-17.3,8.6
	c-0.4,0.2-0.8,0.2-1.2,0l-11-5.5l-10.1,5v24.2l10.1,5l10.1-5V94L59,88.7c-0.7-0.3-1.1-1.1-0.8-1.8c0.1-0.3,0.4-0.6,0.8-0.8l17.3-8.7
	c0.2-0.1,0.4-0.2,0.6-0.2c0.2,0,0.4,0.1,0.6,0.2L89,83.2h0.1c0.2,0.2,0.3,0.4,0.4,0.6c0.2,0.2,0.3,0.5,0.3,0.7v26
	c0,0.6-0.3,1.1-0.9,1.3l-17.3,8.6l-11.5,5.8c-0.4,0.2-0.8,0.2-1.2,0l-11.5-5.8l-17.3-8.7c-0.5-0.2-0.9-0.7-0.9-1.3V67.2
	c0-0.3,0.1-0.5,0.3-0.7c0.1-0.3,0.3-0.5,0.6-0.6L59,51.5C59.2,51.4,59.4,51.3,59.6,51.3z M32.2,69.5v40.1l14.4,7.2V76.7L32.2,69.5z
	 M59.6,54.4L33.9,67.2l14.1,7.1l11-5.5c0.4-0.2,0.8-0.2,1.2,0l11,5.5l14.1-7.1L59.6,54.4z M49.5,104.1v14.1l10.1,5l10.1-5v-14.1
	l-9.5,4.8c-0.4,0.2-0.8,0.2-1.2,0L49.5,104.1z M76.9,80.3l-14.1,7.1l8.4,4.2l14.2-7.1L76.9,80.3z M87,86.8L72.6,94v22.8l14.4-7.2
	V86.8z"/>
</svg>
