<svg id="Layer_1" data-name="Layer 1" xmlns="http://www.w3.org/2000/svg" viewBox="0 0 142.73 142.73"><defs><style>.cls-1{fill:#fff;}.cls-1,.cls-2{stroke:#231f20;stroke-miterlimit:10;}.cls-2{fill:none;}</style></defs><rect class="cls-1" x="0.5" y="0.5" width="141.73" height="141.73"/><line class="cls-2" x1="0.5" y1="46.71" x2="16.8" y2="32.24"/><line class="cls-2" x1="48.21" y1="58" x2="16.8" y2="32.24"/><line class="cls-2" x1="65.86" y1="52.36" x2="48.21" y2="58"/><line class="cls-2" x1="111.74" y1="100" x2="65.86" y2="52.36"/><line class="cls-2" x1="142.23" y1="80.95" x2="111.74" y2="100"/><circle class="cls-2" cx="112.47" cy="37.44" r="15.39"/><path class="cls-2" d="M161.1,355.27a95.82,95.82,0,0,0,35.81-30.93,91.18,91.18,0,0,0,9.19-17" transform="translate(-99.83 -213.04)"/><path class="cls-2" d="M197.45,355.27a62,62,0,0,0,11.3-15.76,63.06,63.06,0,0,0,6.57-28.81" transform="translate(-99.83 -213.04)"/></svg>